<svg version="1.0" xmlns="http://www.w3.org/2000/svg" xmlns:xlink="http://www.w3.org/1999/xlink"
     width="85"
     height="85"
     viewBox="0 0 85 85" preserveAspectRatio="xMidYMid meet" color-interpolation-filters="sRGB"
     class="el-tooltip" style="margin: auto;">
    <rect  x="0" y="0" width="100%" height="100%" fill="#e22027" fill-opacity="1"></rect>

    <g fill="#ffffff" class="icon-text-wrapper icon-svg-group iconsvg"
       transform="translate(1,0)">
        <g fill="#ffffff" class="iconsvg-imagesvg" transform="translate(0,0)">
            <rect fill="#ffffff" fill-opacity="0" stroke-width="2" x="0" y="0" width="83" height="83"
                  class="image-rect"></rect>
            <svg filter="url(#innerFill)" viewBox="0 0 60 53" x="0" y="0" width="83"
                 height="83" hollow-target="" class="image-svg-svg">
                <g>
                    <svg xmlns="http://www.w3.org/2000/svg"
                         viewBox="12 16 72 64" x="0" y="0"
                         width="60" height="53" filtersec="outerFill">
                        <title>icons_</title>
                        <g>
                            <path d="M63.09839,20.34882a1.50416,1.50416,0,0,1,1.29913.75L79.49585,47.24988A1.50455,1.50455,0,0,1,79.496,48.75L64.39734,74.90133a1.50381,1.50381,0,0,1-1.299.74985H32.90173a1.50416,1.50416,0,0,1-1.29913-.75L16.50427,48.75012A1.50455,1.50455,0,0,1,16.50409,47.25L31.60278,21.09867a1.50382,1.50382,0,0,1,1.299-.74985H63.09839m0-4.5H32.90173a5.99985,5.99985,0,0,0-5.19617,3L12.60705,45a6.00039,6.00039,0,0,0,0,6L27.70557,77.15118a5.99985,5.99985,0,0,0,5.19617,3H63.09839a5.99985,5.99985,0,0,0,5.19617-3L83.39307,51a6.00039,6.00039,0,0,0,0-6L68.29455,18.84882a5.99985,5.99985,0,0,0-5.19617-3Z"></path>
                        </g>
                    </svg>
                </g>
                <g>
                    <svg xmlns="http://www.w3.org/2000/svg" viewBox="0 0 67.7 93.1" width="30" height="26" x="15"
                         y="13">
                        <path d="M14.7 91.1V14.7h38.2v63.7H27.4l.1-50.9h12.7v38.1C19.1 65.6 2 48.5 2 27.4V2h63.7v89.1h-51z"
                              fill="none" stroke="#202121" stroke-width="4" stroke-miterlimit="10"></path>
                    </svg>
                </g>
            </svg>
            <defs>
                <filter id="innerFill">
                    <feColorMatrix type="matrix" values="0 0 0 0 1  0 0 0 0 1  0 0 0 0 1  0 0 0 1 0"
                                   class="icon-fecolormatrix"></feColorMatrix>
                </filter>
                <filter id="outerFill">
                    <feColorMatrix type="matrix" values="0 0 0 0 1  0 0 0 0 1  0 0 0 0 1  0 0 0 1 0"
                                   class="icon-fecolormatrix"></feColorMatrix>
                </filter>
            </defs>
        </g>
    </g>
</svg>